<?xml version="1.0" encoding="UTF-8"?>
<svg id="Layer_1" data-name="Layer 1" xmlns="http://www.w3.org/2000/svg" viewBox="0 0 457.7 437.41">
  <defs>
    <style>
      .cls-1 {
        fill: #fff;
      }
    </style>
  </defs>
  <path class="cls-1" d="M249.49,177.66c18.38,24.76,36.13,48.66,54.21,73.01,2.48-2.32,5.35-4.75,7.91-7.49,12.78-13.64,25.13-27.73,38.33-40.95,11.51-11.53,23.95-22.11,35.97-33.13,3.05-2.8,6.45-3.93,10.7-3.89,20.17.21,40.35.09,61.09.09-98.07,72.18-173.73,162.95-228.26,272.1-1.69-3.59-3.58-7.57-5.46-11.57-13.31-28.5-30.65-54.6-48.5-80.22-15.58-22.36-32.91-43.5-49.82-64.9-19.91-25.21-42.12-48.35-66.18-69.42-16.13-14.14-33.87-26.39-50.91-39.47-2.47-1.89-5.03-3.64-8.58-6.2,2.6-.16,3.91-.33,5.23-.33,19.7-.02,39.4-.11,59.1.11,2.36.03,5.23,1.16,6.98,2.76,20.46,18.68,40.92,37.37,61.01,56.46,7.56,7.17,14.18,15.35,21.23,23.08.85.94,1.66,1.9,2.89,3.32,1.26-1.78,2.28-3.12,3.19-4.52,14.38-22.33,29.92-43.77,47.3-63.82,1.69-1.95,2.8-3.4.49-6-24.59-27.71-51.84-52.52-80.29-76.05-1.08-.89-2.28-1.65-3.67-2.63-4.97,5.47-9.84,10.82-14.78,16.26C84.18,76.49,59.9,39.03,35.6,1.58c.26-.37.53-.74.78-1.11,40.69,17.99,81.39,35.99,122.37,54.1-4.92,6.55-9.52,12.69-13.68,18.25,15.24,13.33,30.52,25.63,44.54,39.26,14.04,13.65,26.83,28.64,40.81,43.73,27.33-27.15,55.12-54.76,83.54-83-4.43-5.24-9.17-10.89-14.57-17.28,40.92-18.52,81.81-37.02,122.71-55.53.37.25.75.5,1.12.76-24.82,38.36-49.64,76.72-74.71,115.48-5.64-6.35-10.88-12.23-16.64-18.71-28.58,26.48-57.68,51.72-82.37,80.14ZM229.8,346.17c.66-1.22.97-1.95,1.43-2.59,15.75-22.27,31.57-44.5,47.17-66.88.93-1.33.87-4.39-.02-5.82-5.29-8.47-10.7-16.9-16.56-24.98-9.21-12.7-18.6-25.28-28.33-37.58-4.58-5.8-5.89-5.84-10-.06-14.76,20.82-29.1,41.94-43.64,62.9-1.79,2.58-1.02,4.5.74,6.77,11.71,15.19,23.46,30.34,34.83,45.78,5.02,6.83,9.19,14.3,14.38,22.46Z"/>
  <path class="cls-1" d="M282.79,435.7c-2.79,0-5.33-.7-7.64-2.09-2.31-1.39-4.15-3.26-5.53-5.59-1.38-2.34-2.07-4.9-2.07-7.68s.69-5.42,2.07-7.75c1.38-2.32,3.22-4.17,5.53-5.55,2.31-1.38,4.86-2.07,7.64-2.07s5.42.69,7.75,2.07c2.32,1.38,4.17,3.23,5.55,5.55,1.38,2.32,2.07,4.9,2.07,7.75s-.69,5.35-2.07,7.68c-1.38,2.34-3.23,4.2-5.55,5.59s-4.9,2.09-7.75,2.09ZM282.79,432.42c2.21,0,4.23-.55,6.04-1.64,1.82-1.09,3.27-2.55,4.34-4.38,1.08-1.83,1.62-3.85,1.62-6.06s-.54-4.28-1.62-6.11c-1.08-1.83-2.53-3.28-4.34-4.36-1.82-1.08-3.83-1.62-6.04-1.62s-4.1.54-5.9,1.62c-1.8,1.08-3.25,2.53-4.34,4.36-1.09,1.83-1.64,3.87-1.64,6.11s.55,4.24,1.64,6.06c1.09,1.83,2.54,3.29,4.34,4.38,1.8,1.09,3.77,1.64,5.9,1.64ZM277.34,427.71v-15.16h6.23c1.64,0,2.96.38,3.95,1.13,1,.75,1.5,1.77,1.5,3.05,0,1.18-.34,2.09-1.01,2.75-.67.66-1.51,1.11-2.52,1.35l.08-.57c.76.19,1.39.55,1.89,1.07.49.52.88,1.2,1.15,2.05l1.31,4.34h-3.16l-1.19-3.85c-.25-.79-.51-1.35-.78-1.68s-.76-.49-1.48-.49h-2.95v6.02h-3.03ZM280.37,419.15h3.11c.76,0,1.36-.18,1.78-.55.42-.37.63-.85.63-1.45,0-1.28-.81-1.93-2.42-1.93h-3.11v3.93Z"/>
</svg>