<?xml version="1.0" encoding="UTF-8"?>
<svg id="Layer_1" data-name="Layer 1" xmlns="http://www.w3.org/2000/svg" viewBox="0 0 1395.25 504.39">
  <defs>
    <style>
      .cls-1 {
        fill: #fff;
      }
    </style>
  </defs>
  <path class="cls-1" d="M176.43,125.63c13,17.51,25.55,34.41,38.34,51.63,1.75-1.64,3.78-3.36,5.6-5.3,9.04-9.65,17.77-19.61,27.1-28.96,8.14-8.15,16.94-15.63,25.44-23.42,2.16-1.98,4.56-2.78,7.57-2.75,14.26.15,28.54.07,43.2.07-69.35,51.04-122.85,115.23-161.41,192.42-1.2-2.54-2.53-5.36-3.86-8.18-9.41-20.15-21.67-38.61-34.3-56.73-11.02-15.82-23.27-30.76-35.23-45.9-14.08-17.82-29.78-34.19-46.8-49.09-11.41-10-23.95-18.66-36-27.91-1.75-1.34-3.56-2.58-6.07-4.38,1.84-.11,2.77-.23,3.7-.23,13.93-.01,27.86-.07,41.79.08,1.67.02,3.7.82,4.94,1.95,14.47,13.21,28.93,26.43,43.14,39.92,5.34,5.07,10.03,10.86,15.01,16.32.6.66,1.18,1.35,2.05,2.35.89-1.26,1.61-2.21,2.25-3.2,10.17-15.79,21.16-30.95,33.45-45.13,1.2-1.38,1.98-2.4.35-4.24-17.39-19.6-36.66-37.14-56.78-53.78-.76-.63-1.61-1.16-2.59-1.86-3.52,3.87-6.95,7.65-10.45,11.5C59.53,54.09,42.36,27.6,25.18,1.12c.19-.26.37-.52.56-.78,28.77,12.72,57.55,25.45,86.54,38.26-3.48,4.63-6.73,8.98-9.68,12.91,10.78,9.43,21.59,18.12,31.5,27.76,9.93,9.65,18.97,20.25,28.86,30.93,19.33-19.2,38.98-38.73,59.07-58.69-3.13-3.71-6.49-7.7-10.31-12.22,28.93-13.1,57.86-26.18,86.78-39.27.26.18.53.35.79.53-17.55,27.12-35.1,54.25-52.83,81.66-3.99-4.49-7.7-8.65-11.77-13.23-20.21,18.72-40.79,36.57-58.25,56.67ZM162.51,244.79c.47-.86.69-1.38,1.01-1.83,11.14-15.75,22.33-31.47,33.35-47.3.66-.94.62-3.1-.01-4.11-3.74-5.99-7.57-11.95-11.71-17.67-6.51-8.98-13.15-17.88-20.03-26.58-3.24-4.1-4.17-4.13-7.07-.04-10.44,14.72-20.58,29.65-30.86,44.48-1.26,1.83-.72,3.18.52,4.79,8.28,10.74,16.59,21.46,24.63,32.37,3.55,4.83,6.5,10.11,10.17,15.88Z"/>
  <path class="cls-1" d="M429.67,211.69c-8.08,6.64-16.19,13.32-24.5,20.16-8.38-12.77-20.11-20.36-33.83-24.96-30.19-10.11-63.74,1.44-82.86,28.48-10.28,14.53-16.28,30.85-19.1,48.41-1.34,8.33-1.41,16.67-.76,25.12,1.06,13.66,2.98,26.97,8.71,39.59,7.88,17.33,18.61,32.11,35.77,40.9,28.58,14.64,56.08,12.61,81.67-7.17,5.45-4.22,9.62-10.11,14.76-15.66,7.38,5.69,15.45,11.92,23.51,18.14-15.3,22.86-36.66,36.38-62.64,42.07-23.73,5.2-46.73,1.12-68.58-9.17-31.07-14.64-51.35-39.19-60.95-72.09-6.02-20.65-8.63-42.03-5.7-63.77,3.23-23.89,11.33-45.66,25.86-64.93,16.43-21.79,37.93-36.01,64.36-40.87,31.47-5.8,61.59-1.4,88.28,18.11,3.2,2.33,5.88,5.45,8.58,8.41,2.39,2.63,4.49,5.55,7.42,9.23Z"/>
  <path class="cls-1" d="M930.58,167.58c0-3.21.43-5.11,4.17-5.05,8.19.14,16.39.04,24.82.04v120.54c.22.11.43.22.66.33.57-.84,1.24-1.63,1.72-2.52,7.98-14.93,20.65-23.09,36.96-25.17,18.57-2.37,34.88,2.66,47.63,17.2,8.59,9.8,13.21,21.42,13.85,34.38.67,13.94.74,27.92.8,41.89.12,23.11-.04,35.42-.04,58.53,0,.99-.02,12.79-.08,13.99h-28.91v-3.94c0-27.73.23-46.57-.11-83.21-.09-8.62-.81-17.37-2.45-25.81-3.22-16.62-14.19-26.08-30.82-27.23-7.57-.52-14.1,2.77-19.87,7.52-11.8,9.73-18.46,22.38-18.72,37.72-.5,30.08-.37,60.17-.5,90.27,0,1.46,0,2.92,0,4.63h-29.38c-.04-5.8-.11-11.59-.07-17.37"/>
  <path class="cls-1" d="M602.53,299.55c-5.56-6.89-10.79-13.36-16.03-19.86,12.36-13.45,27.4-20.35,44.26-23.44,11.92-2.18,23.93-2.45,35.77.72,19.07,5.1,30.55,18.26,37.41,36.32,3.75,9.87,4.51,20.11,4.41,30.51-.16,18.37-.51,36.74-.39,55.11.1,14.16.81,28.33,1.25,42.75-8.08,0-18.22.28-27.25.28-.67-13.53-.67-12.17-1.09-23.47-.76.99-1.32,1.66-1.8,2.38-17.07,25.62-53.23,33.38-79.12,17.07-9.32-5.87-15-14.42-18.88-24.56-4.22-11.05-4.51-22.22-1.16-33.45,3.85-12.89,12.97-21.23,24.29-27.29,11.68-6.26,24.47-8.86,37.48-10.05,12.5-1.15,25.05-1.64,37.84-2.43.29-7.65-.27-15.32-3.7-22.48-4.13-8.62-11.73-12.78-20.38-14.98-19.07-4.84-34.9-.59-49.04,12.78-1.11,1.06-2.88,3.25-3.88,4.09ZM679.82,344.82c-.69-.21-.99-.39-1.32-.39-16.91-.26-33.84-.47-50.14,5.16-7.44,2.57-13.75,6.81-17.5,14.17-7.59,14.87-1.8,29.59,13.86,34.68,3.66,1.19,7.56,1.94,11.4,2.21,18.5,1.32,33.55-7.38,39.78-25.45,3.38-9.79,4.05-19.97,3.92-30.38Z"/>
  <path class="cls-1" d="M876.01,306.71c-18.82,53.68-19.49,55.71-38.22,108.93-6.73,19.02-13.58,38.01-20.85,56.83-2.15,5.57-5.2,11.13-9.07,15.61-11.58,13.37-26.59,18.11-43.86,15.72-3.85-.53-7.66-1.34-12.18-2.16.6-7.32.38-5.29,1.04-14.08.23-2.32.67-8.12,1.34-14.88,3.57.93,7.68,2.34,11.05,3.02,8.58,1.73,16-.46,21.36-7.66,2.51-3.37,4.73-7.13,6.31-11.03,4.11-10.19,7.76-20.56,11.65-30.84,1.13-2.97,1.1-5.69-.1-8.77-12.63-32.37-25.05-64.83-37.66-97.22-6.88-17.66-14.01-35.22-20.99-52.84-.98-2.47-1.73-5.03-2.79-8.13h12.74c5.69,0,11.37.1,17.05-.05,2.09-.05,3.09.51,3.84,2.63,14.3,40.4,28.69,80.77,43.07,121.14.37,1.04.79,2.06,1.53,3.98,1.24-3.01,2.35-5.22,3.09-7.56,11.78-37.35,23.51-74.72,35.24-112.08.03-.11.09-.21.12-.31q2.33-7.74,10.49-7.74h22.63"/>
  <path class="cls-1" d="M471.35,259.61h28.09q0,11.5.05,26.75c.2.09.41.19.61.28,1.53-2.51,3.2-4.94,4.55-7.54,8.25-16.01,21.94-22.9,39.08-23.86,4.07-.23,8.19.36,12.64.59-.41,10.36-.81,20.28-1.2,30.3-4.9-1.49-7.98-1.53-11.93-1.56-16.8-.09-28.79,8-36.27,22.95-5.46,10.92-6.51,22.71-6.41,34.81q.23,51.21.07,79.37h-29.21c0-3.19,0-6.39,0-9.6"/>
  <path class="cls-1" d="M1119.88,259.67c2.46-.3,10.44-.75,12.81-.74,6.45.04,7.29.16,13.73.52.85.05,2.26,1.4,2.33,2.24.29,3.57.19,7.16.18,10.75-.04,31-.17,45.46-.2,76.46-.02,17.47.08,51.49.08,68.97v4.1c-8.87,0-17.19-.09-25.51.05-3.22.06-3.47-1.59-3.47-4.22"/>
  <path class="cls-1" d="M1135.03,221.73c10.53,0,19.06-9.24,19.06-20.63s-8.53-20.63-19.06-20.63-19.06,9.24-19.06,20.63,8.53,20.63,19.06,20.63Z"/>
  <path class="cls-1" d="M1239.68,162.88h-28.75v258.4h28.75V162.88Z"/>
  <path class="cls-1" d="M1325.94,162.88h-28.75v258.4h28.75V162.88Z"/>
  <path class="cls-1" d="M1373.87,421.98c-3.88,0-7.42-.97-10.63-2.91-3.21-1.94-5.77-4.53-7.69-7.78-1.92-3.25-2.88-6.81-2.88-10.69s.96-7.54,2.88-10.77c1.92-3.23,4.48-5.8,7.69-7.72,3.21-1.92,6.76-2.88,10.63-2.88s7.54.96,10.77,2.88c3.23,1.92,5.8,4.49,7.73,7.72,1.92,3.23,2.88,6.82,2.88,10.77s-.96,7.44-2.88,10.69c-1.92,3.25-4.5,5.84-7.73,7.78-3.23,1.94-6.82,2.91-10.77,2.91ZM1373.87,417.42c3.08,0,5.88-.76,8.41-2.28,2.53-1.52,4.54-3.55,6.04-6.1,1.5-2.54,2.25-5.36,2.25-8.44s-.75-5.95-2.25-8.49c-1.5-2.54-3.51-4.57-6.04-6.07-2.52-1.5-5.33-2.25-8.41-2.25s-5.7.75-8.21,2.25c-2.51,1.5-4.52,3.53-6.04,6.07-1.52,2.55-2.28,5.38-2.28,8.49s.76,5.89,2.28,8.44c1.52,2.55,3.53,4.58,6.04,6.1,2.51,1.52,5.24,2.28,8.21,2.28ZM1366.29,410.86v-21.09h8.66c2.28,0,4.11.52,5.5,1.57,1.39,1.05,2.08,2.46,2.08,4.25,0,1.63-.47,2.91-1.4,3.82-.93.91-2.1,1.54-3.5,1.88l.11-.8c1.06.27,1.94.76,2.62,1.48.68.72,1.22,1.67,1.6,2.85l1.82,6.04h-4.39l-1.65-5.36c-.34-1.1-.7-1.88-1.08-2.34s-1.06-.68-2.05-.68h-4.1v8.38h-4.22ZM1370.51,398.95h4.33c1.06,0,1.89-.26,2.48-.77.59-.51.88-1.19.88-2.02,0-1.79-1.12-2.68-3.36-2.68h-4.33v5.47Z"/>
</svg>