<?xml version="1.0" encoding="UTF-8"?>
<svg id="Layer_1" xmlns="http://www.w3.org/2000/svg" version="1.1" viewBox="0 0 43.2 43.2">
  <!-- Generator: Adobe Illustrator 30.1.0, SVG Export Plug-In . SVG Version: 2.1.1 Build 136)  -->
  <defs>
    <style>
      .st0 {
        fill: #57a0dd;
      }
    </style>
  </defs>
  <path class="st0" d="M32.2,20.4l5.4-5.4.5.5c.7.7.7,1.8,0,2.5l-3.7,3.7,3.7,3.7c.7.7.7,1.8,0,2.5l-.5.5-5.4-5.4c-.7-.7-.7-1.8,0-2.5h0Z"/>
  <path class="st0" d="M11,22.8l-5.4,5.4-.5-.5c-.7-.7-.7-1.8,0-2.5l3.7-3.7-3.7-3.7c-.7-.7-.7-1.8,0-2.5l.5-.5,5.4,5.4c.7.7.7,1.8,0,2.5h0Z"/>
  <g>
    <path class="st0" d="M20.4,11l-5.4-5.4.5-.5c.7-.7,1.8-.7,2.5,0l3.7,3.7,3.7-3.7c.7-.7,1.8-.7,2.5,0l.5.5-5.4,5.4c-.7.7-1.8.7-2.5,0h0Z"/>
    <path class="st0" d="M28.2,13.2v-7.6h.7c1,0,1.7.8,1.7,1.7v5.2h5.2c1,0,1.7.8,1.7,1.7v.7h-7.6c-1,0-1.7-.8-1.7-1.7Z"/>
    <path class="st0" d="M15,13.2v-7.6h-.7c-1,0-1.7.8-1.7,1.7v5.2h-5.2c-1,0-1.7.8-1.7,1.7v.7h7.6c1,0,1.7-.8,1.7-1.7Z"/>
  </g>
  <g>
    <path class="st0" d="M22.8,32.2l5.4,5.4-.5.5c-.7.7-1.8.7-2.5,0l-3.7-3.7-3.7,3.7c-.7.7-1.8.7-2.5,0l-.5-.5,5.4-5.4c.7-.7,1.8-.7,2.5,0h0Z"/>
    <path class="st0" d="M15,30v7.6h-.7c-1,0-1.7-.8-1.7-1.7v-5.2h-5.2c-1,0-1.7-.8-1.7-1.7v-.7h7.6c1,0,1.7.8,1.7,1.7Z"/>
    <path class="st0" d="M28.2,30v7.6h.7c1,0,1.7-.8,1.7-1.7v-5.2h5.2c1,0,1.7-.8,1.7-1.7v-.7h-7.6c-1,0-1.7.8-1.7,1.7Z"/>
  </g>
</svg>