<?xml version="1.0" encoding="UTF-8"?>
<svg id="Layer_1" xmlns="http://www.w3.org/2000/svg" version="1.1" viewBox="0 0 43.2 43.2">
  <!-- Generator: Adobe Illustrator 30.1.0, SVG Export Plug-In . SVG Version: 2.1.1 Build 136)  -->
  <defs>
    <style>
      .st0 {
        fill: #8b8a8a;
      }
    </style>
  </defs>
  <g id="KzGhVt">
    <path class="st0" d="M35.1,34.1H8.2c-1.7,0-3.3-1.3-3.3-3.1V12.2c0-1.7,1.6-3.1,3.2-3.1h26.8c1.7,0,3.3,1.4,3.3,3.2v18.7c0,1.7-1.5,3.2-3.2,3.2ZM25.3,21.6l9.3-10.3H8.6s9.6,10.5,9.6,10.5c2,2,5.3,1.9,7.2-.2ZM14.2,23.3l1.2-1.2L7.1,13.1v17.2s7-7,7-7ZM29.6,23.8l6.5,6.5V13.1s-8.2,9-8.2,9l1.7,1.8ZM34.5,31.9l-8.2-8.2c-2.7,2.4-6.8,2.4-9.4,0l-8.2,8.2h25.8Z"/>
  </g>
</svg>