<?xml version="1.0" encoding="UTF-8"?>
<svg id="Layer_1" xmlns="http://www.w3.org/2000/svg" version="1.1" viewBox="0 0 43.2 43.2">
  <!-- Generator: Adobe Illustrator 30.1.0, SVG Export Plug-In . SVG Version: 2.1.1 Build 136)  -->
  <defs>
    <style>
      .st0 {
        fill: #57a0dd;
      }
    </style>
  </defs>
  <path class="st0" d="M18.4,19.2c2.4-4.1,2.7-9.1.9-13.5l-6.8,3.9,3.7,6.4c.3.6.3,1.2,0,1.8-.3.6-.9.9-1.6.9H5.4v8c5.3,0,10.3-2.9,13-7.6h0Z"/>
  <path class="st0" d="M21.6,27.1c.6,0,1.2.3,1.6.9l5.5,9.4,6.8-4c-2.4-5.5-7.9-9-13.9-9s-11.4,3.5-13.9,9l6.8,4,5.5-9.5c.3-.6.9-.9,1.6-.9h0Z"/>
  <path class="st0" d="M24.8,19.2c2.7,4.6,7.6,7.5,13,7.6v-8h-9.1c-.6,0-1.2-.3-1.6-.9-.3-.6-.3-1.2,0-1.8l3.7-6.4-6.8-3.9c-1.8,4.4-1.5,9.4.9,13.5h0Z"/>
</svg>