<?xml version="1.0" encoding="UTF-8"?>
<svg id="Layer_1" xmlns="http://www.w3.org/2000/svg" version="1.1" viewBox="0 0 43.2 43.2">
  <!-- Generator: Adobe Illustrator 30.1.0, SVG Export Plug-In . SVG Version: 2.1.1 Build 136)  -->
  <defs>
    <style>
      .st0 {
        fill: #57a0dd;
      }
    </style>
  </defs>
  <path class="st0" d="M25.6,6h-8c-.5,6.2-5.5,11.1-11.6,11.6v8c6.2.5,11.1,5.5,11.6,11.6h8c.5-6.2,5.5-11.1,11.6-11.6v-8c-6.2-.5-11.1-5.5-11.6-11.6ZM32.2,22.6c-4.4,1.7-7.9,5.2-9.7,9.6l-1,2.5-1-2.5c-1.7-4.4-5.2-7.9-9.6-9.6l-2.6-1,2.6-1c4.4-1.7,7.9-5.2,9.7-9.6l1-2.6,1,2.6c1.7,4.4,5.2,7.9,9.6,9.6l2.6,1-2.6,1Z"/>
</svg>