<?xml version="1.0" encoding="UTF-8"?>
<svg id="Layer_1" xmlns="http://www.w3.org/2000/svg" version="1.1" viewBox="0 0 43.2 43.2">
  <!-- Generator: Adobe Illustrator 30.1.0, SVG Export Plug-In . SVG Version: 2.1.1 Build 136)  -->
  <defs>
    <style>
      .st0 {
        fill: #8b8a8a;
      }
    </style>
  </defs>
  <g id="QPAH62">
    <g>
      <path class="st0" d="M33.8,34h-5.4s0-8.5,0-8.5c0-.7,0-1.6-.4-2.2s-.7-.9-1.3-1c-.6-.1-1.3-.1-1.9,0-1.7.5-1.8,2.4-1.8,3.9v7.7s-5.4,0-5.4,0v-16.6s5.4,0,5.4,0v2.5c.9-1.6,2.1-2.2,3.8-2.4,1.3-.1,2.6,0,3.8.5s2.3,1.9,2.8,3.4c.4,1.3.5,2.9.5,4.2v8.5Z"/>
      <rect class="st0" x="9.4" y="17.5" width="5.4" height="16.6"/>
      <path class="st0" d="M11.8,9.2c1.5-.2,2.8,1,3,2.5s-.9,2.9-2.4,3-2.8-.9-3-2.5.9-2.9,2.4-3Z"/>
    </g>
  </g>
</svg>